# xmcd
#
# Track frame offsets:
#	150
#	32812
#	61088
#	83708
#	104280
#	128896
#	148052
#	183020
#	201535
#	228278
#	256316
#	287187
#	302621
#	328346
#
# Disc length: 4597 seconds
#
# Revision: 0
# Processed by: cddbd v1.5.1PL2 Copyright (c) Steve Scherf et al.
# Submitted via: dBpowerAMP V4.0
#
DISCID=c911f30e
DTITLE=Various Artist - Illusion The Green Zone CD1
DYEAR=1900
DGENRE=
TTITLE0=Sean Callery - The Longest Day (Armin Van Buuren Remix)
TTITLE1=Red Flag - Pacific Memory
TTITLE2=Marc Et Claude - Free (Mark Norman Remix)
TTITLE3=Milk Inc - Eyes Open
TTITLE4=Reflekt ft. Delline Bass - Need To Feel Loved (Seb Fontaine and Jay PS Type Remix)
TTITLE5=Shameboy - Rechoque
TTITLE6=Zone 52 - Resolution
TTITLE7=Antidote - Cybernetic Desire
TTITLE8=Active Sight - Adrenalin
TTITLE9=M.I.K.E. - Massive Motion
TTITLE10=Dj Ernesto - In Me (Danjo and Styles Remix)
TTITLE11=Cosmo Kid - Neon Pressure
TTITLE12=Fire and Ice - Let There Be Light
TTITLE13=Tom Vain and Jan Vervloet presents Vergo - Touch My Soul
EXTD=
EXTT0=
EXTT1=
EXTT2=
EXTT3=
EXTT4=
EXTT5=
EXTT6=
EXTT7=
EXTT8=
EXTT9=
EXTT10=
EXTT11=
EXTT12=
EXTT13=
PLAYORDER=
